<svg width="720" height="240" viewBox="0 0 720 240" fill="none" xmlns="http://www.w3.org/2000/svg">
  <rect width="720" height="240" rx="24" fill="#F5F9FC"/>
  <circle cx="118" cy="120" r="64" fill="#1769AA"/>
  <path d="M93 126C81 124 72 114 72 101C72 85 84 73 100 73C109 73 117 77 122 84C128 74 139 68 151 68C170 68 185 83 185 102C185 112 181 121 174 127C178 132 180 139 180 146C180 164 166 178 148 178H99C83 178 70 165 70 149C70 137 79 127 93 126Z" fill="white"/>
  <path d="M113 96V151M140 91V156M91 119H161" stroke="#00A896" stroke-width="10" stroke-linecap="round"/>
  <text x="220" y="105" font-family="Arial, Helvetica, sans-serif" font-size="34" font-weight="800" fill="#0F4C81">Santé Mentale Analytics</text>
  <text x="220" y="145" font-family="Arial, Helvetica, sans-serif" font-size="20" fill="#52616B">Analyse, nettoyage, visualisation et exportation</text>
  <rect x="220" y="166" width="180" height="10" rx="5" fill="#1769AA"/>
  <rect x="414" y="166" width="110" height="10" rx="5" fill="#00A896"/>
  <rect x="538" y="166" width="70" height="10" rx="5" fill="#F59F00"/>
</svg>

